<svg width="33" height="41" viewBox="0 0 33 41" fill="none" xmlns="http://www.w3.org/2000/svg">
<path d="M27.3199 22.0619C27.3396 20.5305 27.7464 19.0289 28.5024 17.6969C29.2584 16.3648 30.339 15.2457 31.6438 14.4436C30.8149 13.2598 29.7215 12.2856 28.4502 11.5984C27.179 10.9111 25.765 10.5298 24.3206 10.4846C21.2395 10.1612 18.2525 12.3283 16.6824 12.3283C15.0819 12.3283 12.6645 10.5167 10.0614 10.5702C8.37759 10.6246 6.73661 11.1143 5.29832 11.9914C3.86003 12.8686 2.67349 14.1034 1.85429 15.5754C-1.69429 21.7192 0.952633 30.7486 4.35187 35.7148C6.05259 38.1466 8.04023 40.863 10.641 40.7666C13.1861 40.6611 14.1366 39.1438 17.2086 39.1438C20.2522 39.1438 21.144 40.7666 23.7976 40.7054C26.5285 40.6611 28.2491 38.2628 29.8902 35.8079C31.1121 34.0752 32.0524 32.1601 32.6762 30.1337C31.0896 29.4626 29.7356 28.3394 28.7831 26.904C27.8306 25.4686 27.3217 23.7846 27.3199 22.0619Z" fill="white"/>
<path d="M22.3077 7.21844C23.7968 5.43093 24.5303 3.13338 24.3527 0.813721C22.0778 1.05265 19.9764 2.1399 18.4673 3.85884C17.7294 4.69858 17.1643 5.67551 16.8042 6.73379C16.4442 7.79207 16.2962 8.91094 16.3688 10.0264C17.5066 10.0382 18.6323 9.79154 19.661 9.30514C20.6898 8.81875 21.5947 8.10527 22.3077 7.21844Z" fill="white"/>
</svg>
