<svg width="41" height="46" viewBox="0 0 41 46" fill="none" xmlns="http://www.w3.org/2000/svg">
<path d="M19.4727 22.2141L0.790955 42.0416C0.792709 42.0451 0.792709 42.0504 0.794464 42.0539C1.36823 44.2068 3.33344 45.7913 5.66712 45.7913C6.60059 45.7913 7.47616 45.5386 8.22715 45.0964L8.28681 45.0613L29.3145 32.9279L19.4727 22.2141Z" fill="#EA4335"/>
<path d="M38.3718 18.8377L38.3542 18.8254L29.2757 13.5632L19.0479 22.6646L29.3125 32.9258L38.342 27.7162C39.9246 26.86 41.0002 25.1913 41.0002 23.2682C41.0002 21.3556 39.9404 19.6957 38.3718 18.8377Z" fill="#FBBC04"/>
<path d="M0.790608 4.41007C0.67831 4.82417 0.618652 5.25932 0.618652 5.70851V40.7453C0.618652 41.1945 0.67831 41.6297 0.792362 42.042L20.1145 22.7216L0.790608 4.41007Z" fill="#4285F4"/>
<path d="M19.6106 23.2263L29.2787 13.56L8.27561 1.38271C7.51234 0.924748 6.62098 0.661552 5.6682 0.661552C3.33452 0.661552 1.36581 2.24951 0.792037 4.40421C0.792037 4.40597 0.790283 4.40772 0.790283 4.40948L19.6106 23.2263Z" fill="#34A853"/>
</svg>
