<svg width="218" height="71" viewBox="0 0 218 71" fill="none" xmlns="http://www.w3.org/2000/svg">
<rect x="1.46004" y="0.833454" width="214.959" height="68.7825" rx="6.31676" stroke="white" stroke-width="1.40373"/>
<path d="M44.3199 36.0619C44.3396 34.5305 44.7464 33.0289 45.5024 31.6969C46.2584 30.3648 47.339 29.2457 48.6438 28.4436C47.8149 27.2598 46.7215 26.2856 45.4502 25.5984C44.179 24.9111 42.765 24.5298 41.3206 24.4846C38.2395 24.1612 35.2525 26.3283 33.6824 26.3283C32.0819 26.3283 29.6645 24.5167 27.0614 24.5702C25.3776 24.6246 23.7366 25.1143 22.2983 25.9914C20.86 26.8686 19.6735 28.1034 18.8543 29.5754C15.3057 35.7192 17.9526 44.7486 21.3519 49.7148C23.0526 52.1466 25.0402 54.863 27.641 54.7666C30.1861 54.6611 31.1366 53.1438 34.2086 53.1438C37.2522 53.1438 38.144 54.7666 40.7976 54.7054C43.5285 54.6611 45.2491 52.2628 46.8902 49.8079C48.1121 48.0752 49.0524 46.1601 49.6762 44.1337C48.0896 43.4626 46.7356 42.3394 45.7831 40.904C44.8306 39.4686 44.3217 37.7846 44.3199 36.0619V36.0619Z" fill="white"/>
<path d="M39.3077 21.2184C40.7968 19.4309 41.5303 17.1334 41.3527 14.8137C39.0778 15.0527 36.9764 16.1399 35.4673 17.8588C34.7294 18.6986 34.1643 19.6755 33.8042 20.7338C33.4442 21.7921 33.2962 22.9109 33.3688 24.0264C34.5066 24.0382 35.6323 23.7915 36.661 23.3051C37.6898 22.8188 38.5947 22.1053 39.3077 21.2184Z" fill="white"/>
<path d="M76.4909 48.6104H67.8058L65.7201 54.7689H62.0415L70.2678 31.9839H74.0898L82.3161 54.7689H78.5747L76.4909 48.6104ZM68.7053 45.7685H75.5896L72.1959 35.7737H72.1009L68.7053 45.7685Z" fill="white"/>
<path d="M100.082 46.4638C100.082 51.6261 97.3191 54.9428 93.1495 54.9428C92.0933 54.998 91.0428 54.7547 90.1184 54.2407C89.1941 53.7267 88.4331 52.9628 87.9227 52.0364H87.8438V60.2645H84.434V38.1569H87.7346V40.9199H87.7973C88.3311 39.9979 89.1049 39.238 90.0364 38.7208C90.9678 38.2037 92.022 37.9487 93.0868 37.983C97.3029 37.9831 100.082 41.3159 100.082 46.4638ZM96.5773 46.4638C96.5773 43.1006 94.8392 40.8894 92.1873 40.8894C89.5819 40.8894 87.8295 43.1471 87.8295 46.4638C87.8295 49.811 89.5819 52.0526 92.1873 52.0526C94.8392 52.0526 96.5773 49.8576 96.5773 46.4638Z" fill="white"/>
<path d="M118.366 46.4638C118.366 51.6261 115.603 54.9428 111.433 54.9428C110.377 54.998 109.327 54.7547 108.402 54.2407C107.478 53.7267 106.717 52.9628 106.207 52.0364H106.128V60.2645H102.718V38.1568H106.018V40.9199H106.081C106.615 39.9979 107.389 39.2379 108.32 38.7208C109.252 38.2037 110.306 37.9487 111.371 37.983C115.587 37.983 118.366 41.3158 118.366 46.4638ZM114.861 46.4638C114.861 43.1005 113.123 40.8894 110.471 40.8894C107.866 40.8894 106.113 43.1471 106.113 46.4638C106.113 49.8109 107.866 52.0525 110.471 52.0525C113.123 52.0525 114.861 49.8575 114.861 46.4638H114.861Z" fill="white"/>
<path d="M130.45 48.4205C130.703 50.68 132.898 52.1635 135.897 52.1635C138.771 52.1635 140.839 50.6799 140.839 48.6426C140.839 46.874 139.592 45.8151 136.639 45.0894L133.686 44.378C129.502 43.3674 127.56 41.4107 127.56 38.2356C127.56 34.3043 130.986 31.604 135.851 31.604C140.665 31.604 143.966 34.3043 144.077 38.2356H140.635C140.429 35.9617 138.549 34.5892 135.802 34.5892C133.055 34.5892 131.176 35.9779 131.176 37.9991C131.176 39.6099 132.376 40.5578 135.313 41.2834L137.823 41.8998C142.498 43.0054 144.441 44.8833 144.441 48.216C144.441 52.4788 141.045 55.1487 135.645 55.1487C130.592 55.1487 127.18 52.5415 126.96 48.4203L130.45 48.4205Z" fill="white"/>
<path d="M151.8 34.2253V38.1566H154.959V40.8569H151.8V50.015C151.8 51.4377 152.432 52.1007 153.821 52.1007C154.196 52.0942 154.57 52.0678 154.943 52.0218V54.706C154.318 54.8226 153.684 54.8755 153.049 54.8636C149.685 54.8636 148.374 53.6004 148.374 50.3787V40.8569H145.958V38.1566H148.374V34.2253H151.8Z" fill="white"/>
<path d="M156.788 46.4638C156.788 41.2371 159.867 37.9526 164.667 37.9526C169.484 37.9526 172.548 41.237 172.548 46.4638C172.548 51.705 169.5 54.9751 164.667 54.9751C159.836 54.9751 156.788 51.705 156.788 46.4638ZM169.073 46.4638C169.073 42.8784 167.43 40.7622 164.667 40.7622C161.904 40.7622 160.263 42.8945 160.263 46.4638C160.263 50.0636 161.904 52.1637 164.667 52.1637C167.43 52.1637 169.073 50.0636 169.073 46.4638H169.073Z" fill="white"/>
<path d="M175.359 38.1567H178.611V40.9842H178.69C178.91 40.1011 179.427 39.3207 180.155 38.7741C180.883 38.2275 181.776 37.9481 182.686 37.9829C183.079 37.9815 183.471 38.0242 183.854 38.1101V41.2996C183.358 41.148 182.84 41.0784 182.322 41.0935C181.827 41.0734 181.333 41.1608 180.874 41.3495C180.416 41.5383 180.004 41.8241 179.666 42.1872C179.329 42.5503 179.074 42.9821 178.919 43.453C178.764 43.924 178.713 44.4229 178.769 44.9155V54.7688H175.359L175.359 38.1567Z" fill="white"/>
<path d="M199.576 49.8898C199.117 52.9055 196.18 54.9751 192.423 54.9751C187.59 54.9751 184.59 51.7372 184.59 46.5427C184.59 41.332 187.606 37.9526 192.279 37.9526C196.875 37.9526 199.765 41.1098 199.765 46.1467V47.315H188.033V47.521C187.978 48.1324 188.055 48.7483 188.257 49.3278C188.459 49.9073 188.782 50.4372 189.205 50.8822C189.628 51.3273 190.14 51.6773 190.709 51.909C191.277 52.1408 191.888 52.249 192.501 52.2264C193.307 52.3019 194.116 52.1153 194.807 51.6943C195.498 51.2733 196.035 50.6404 196.338 49.8898L199.576 49.8898ZM188.049 44.9318H196.354C196.384 44.3821 196.301 43.832 196.109 43.316C195.917 42.8001 195.62 42.3294 195.238 41.9335C194.855 41.5376 194.395 41.225 193.886 41.0155C193.377 40.8059 192.83 40.7038 192.279 40.7156C191.724 40.7123 191.173 40.819 190.66 41.0296C190.146 41.2401 189.679 41.5503 189.285 41.9423C188.892 42.3343 188.58 42.8003 188.368 43.3134C188.156 43.8265 188.047 44.3766 188.049 44.9318V44.9318Z" fill="white"/>
<path d="M68.2779 14.8335C68.9928 14.7822 69.7102 14.8902 70.3783 15.1497C71.0463 15.4092 71.6485 15.8137 72.1413 16.3341C72.6341 16.8545 73.0053 17.4778 73.2281 18.1591C73.4508 18.8403 73.5196 19.5624 73.4295 20.2735C73.4295 23.7711 71.5391 25.7817 68.2779 25.7817H64.3234V14.8335H68.2779ZM66.0238 24.2333H68.088C68.5988 24.2639 69.11 24.1801 69.5844 23.9882C70.0588 23.7962 70.4844 23.5009 70.8303 23.1237C71.1761 22.7466 71.4335 22.297 71.5837 21.8078C71.7339 21.3186 71.7731 20.8021 71.6985 20.2958C71.7677 19.7915 71.7245 19.2782 71.572 18.7926C71.4195 18.3069 71.1615 17.8611 70.8164 17.4869C70.4713 17.1127 70.0478 16.8195 69.5761 16.6282C69.1044 16.437 68.5962 16.3524 68.088 16.3806H66.0238V24.2333Z" fill="white"/>
<path d="M75.3502 21.647C75.2983 21.104 75.3604 20.5562 75.5326 20.0386C75.7048 19.5211 75.9832 19.0452 76.3501 18.6416C76.7169 18.238 77.1641 17.9155 77.6629 17.6948C78.1617 17.4741 78.7011 17.3601 79.2466 17.3601C79.792 17.3601 80.3314 17.4741 80.8302 17.6948C81.329 17.9155 81.7762 18.238 82.1431 18.6416C82.5099 19.0452 82.7884 19.5211 82.9606 20.0386C83.1327 20.5562 83.1948 21.104 83.1429 21.647C83.1958 22.1905 83.1345 22.7391 82.9627 23.2575C82.791 23.7759 82.5127 24.2526 82.1458 24.657C81.7788 25.0614 81.3313 25.3846 80.832 25.6058C80.3327 25.8269 79.7927 25.9412 79.2466 25.9412C78.7005 25.9412 78.1604 25.8269 77.6611 25.6058C77.1618 25.3846 76.7143 25.0614 76.3474 24.657C75.9804 24.2526 75.7021 23.7759 75.5304 23.2575C75.3587 22.7391 75.2973 22.1905 75.3502 21.647ZM81.4657 21.647C81.4657 19.8561 80.6612 18.8087 79.2493 18.8087C77.8319 18.8087 77.0346 19.8561 77.0346 21.647C77.0346 23.4523 77.832 24.4915 79.2493 24.4915C80.6612 24.4915 81.4658 23.4451 81.4658 21.647H81.4657Z" fill="white"/>
<path d="M93.5016 25.7817H91.8101L90.1025 19.6966H89.9735L88.273 25.7817H86.5977L84.3203 17.5195H85.9741L87.4542 23.824H87.576L89.2747 17.5195H90.839L92.5376 23.824H92.6666L94.1395 17.5195H95.7701L93.5016 25.7817Z" fill="white"/>
<path d="M97.6856 17.5192H99.2552V18.8317H99.377C99.5837 18.3603 99.9324 17.9651 100.374 17.7013C100.816 17.4374 101.33 17.318 101.843 17.3597C102.245 17.3295 102.648 17.3901 103.024 17.537C103.399 17.684 103.737 17.9136 104.011 18.2087C104.286 18.5038 104.491 18.8569 104.61 19.2419C104.73 19.6269 104.761 20.0339 104.702 20.4327V25.7812H103.072V20.8421C103.072 19.5144 102.495 18.8541 101.289 18.8541C101.016 18.8414 100.744 18.8878 100.49 18.9903C100.237 19.0927 100.009 19.2487 99.8213 19.4476C99.634 19.6465 99.4918 19.8835 99.4046 20.1424C99.3174 20.4014 99.2872 20.6761 99.3161 20.9479V25.7813H97.6855L97.6856 17.5192Z" fill="white"/>
<path d="M107.301 14.2942H108.931V25.7816H107.301V14.2942Z" fill="white"/>
<path d="M111.198 21.6469C111.146 21.1039 111.208 20.556 111.38 20.0385C111.552 19.5209 111.831 19.045 112.198 18.6414C112.565 18.2377 113.012 17.9152 113.511 17.6946C114.01 17.4739 114.549 17.3599 115.095 17.3599C115.64 17.3599 116.179 17.4739 116.678 17.6946C117.177 17.9152 117.624 18.2377 117.991 18.6414C118.358 19.045 118.637 19.5209 118.809 20.0385C118.981 20.556 119.043 21.1039 118.991 21.6469C119.044 22.1904 118.983 22.739 118.811 23.2574C118.639 23.7758 118.361 24.2525 117.994 24.6569C117.627 25.0613 117.179 25.3845 116.68 25.6057C116.181 25.8268 115.641 25.9411 115.095 25.9411C114.548 25.9411 114.008 25.8268 113.509 25.6057C113.01 25.3845 112.562 25.0613 112.195 24.6569C111.828 24.2525 111.55 23.7758 111.378 23.2574C111.206 22.739 111.145 22.1904 111.198 21.6469ZM117.313 21.6469C117.313 19.856 116.509 18.8086 115.097 18.8086C113.679 18.8086 112.882 19.856 112.882 21.6469C112.882 23.4522 113.68 24.4914 115.097 24.4914C116.509 24.4914 117.313 23.445 117.313 21.6469Z" fill="white"/>
<path d="M120.708 23.4449C120.708 21.9577 121.815 21.1003 123.781 20.9785L126.019 20.8495V20.1363C126.019 19.2637 125.442 18.7709 124.327 18.7709C123.417 18.7709 122.786 19.1051 122.605 19.6892H121.027C121.194 18.2701 122.528 17.3599 124.403 17.3599C126.474 17.3599 127.642 18.391 127.642 20.1363V25.7815H126.073V24.6204H125.944C125.682 25.0369 125.314 25.3764 124.878 25.6043C124.442 25.8322 123.953 25.9403 123.462 25.9176C123.115 25.9537 122.765 25.9167 122.433 25.809C122.101 25.7013 121.796 25.5253 121.536 25.2923C121.277 25.0593 121.069 24.7746 120.926 24.4564C120.784 24.1382 120.709 23.7936 120.708 23.4449ZM126.019 22.7389V22.0482L124.001 22.1772C122.864 22.2533 122.347 22.6404 122.347 23.3688C122.347 24.1124 122.993 24.5451 123.88 24.5451C124.139 24.5714 124.402 24.5452 124.652 24.4679C124.901 24.3907 125.133 24.2641 125.332 24.0955C125.532 23.927 125.695 23.7201 125.813 23.487C125.931 23.254 126.001 22.9996 126.019 22.7389Z" fill="white"/>
<path d="M129.785 21.647C129.785 19.0363 131.127 17.3824 133.215 17.3824C133.731 17.3587 134.244 17.4823 134.692 17.739C135.141 17.9957 135.507 18.3748 135.749 18.832H135.87V14.2942H137.501V25.7816H135.939V24.4763H135.81C135.55 24.9304 135.171 25.3048 134.713 25.5588C134.256 25.8129 133.738 25.9371 133.215 25.9178C131.113 25.9179 129.785 24.264 129.785 21.647ZM131.47 21.647C131.47 23.3994 132.296 24.4539 133.677 24.4539C135.052 24.4539 135.901 23.3842 135.901 21.6542C135.901 19.9322 135.043 18.8473 133.677 18.8473C132.305 18.8473 131.47 19.9089 131.47 21.647H131.47Z" fill="white"/>
<path d="M144.247 21.647C144.195 21.104 144.257 20.5562 144.43 20.0386C144.602 19.5211 144.88 19.0452 145.247 18.6416C145.614 18.238 146.061 17.9155 146.56 17.6948C147.059 17.4741 147.598 17.3601 148.144 17.3601C148.689 17.3601 149.229 17.4741 149.727 17.6948C150.226 17.9155 150.673 18.238 151.04 18.6416C151.407 19.0452 151.685 19.5211 151.858 20.0386C152.03 20.5562 152.092 21.104 152.04 21.647C152.093 22.1905 152.032 22.7391 151.86 23.2575C151.688 23.7759 151.41 24.2526 151.043 24.657C150.676 25.0614 150.228 25.3846 149.729 25.6058C149.23 25.8269 148.69 25.9412 148.144 25.9412C147.598 25.9412 147.058 25.8269 146.558 25.6058C146.059 25.3846 145.611 25.0614 145.244 24.657C144.877 24.2526 144.599 23.7759 144.427 23.2575C144.256 22.7391 144.194 22.1905 144.247 21.647ZM150.363 21.647C150.363 19.8561 149.558 18.8087 148.146 18.8087C146.729 18.8087 145.932 19.8561 145.932 21.647C145.932 23.4523 146.729 24.4915 148.146 24.4915C149.558 24.4915 150.363 23.4451 150.363 21.647Z" fill="white"/>
<path d="M154.228 17.5192H155.797V18.8317H155.919C156.126 18.3603 156.475 17.9651 156.917 17.7013C157.359 17.4374 157.872 17.318 158.385 17.3597C158.787 17.3295 159.191 17.3901 159.566 17.537C159.941 17.684 160.279 17.9136 160.554 18.2087C160.828 18.5038 161.033 18.8569 161.153 19.2419C161.272 19.6269 161.304 20.0339 161.245 20.4327V25.7812H159.614V20.8421C159.614 19.5144 159.037 18.8541 157.831 18.8541C157.558 18.8414 157.286 18.8878 157.032 18.9903C156.779 19.0927 156.551 19.2487 156.364 19.4476C156.176 19.6465 156.034 19.8835 155.947 20.1424C155.86 20.4014 155.829 20.6761 155.858 20.9479V25.7813H154.228V17.5192Z" fill="white"/>
<path d="M170.458 15.4622V17.5568H172.248V18.9303H170.458V23.1787C170.458 24.0442 170.815 24.4231 171.626 24.4231C171.834 24.4225 172.042 24.4099 172.248 24.3855V25.7437C171.955 25.7961 171.659 25.824 171.361 25.827C169.548 25.827 168.826 25.1891 168.826 23.5962V18.9302H167.514V17.5567H168.826V15.4622H170.458Z" fill="white"/>
<path d="M174.476 14.2942H176.092V18.8473H176.221C176.438 18.3714 176.796 17.974 177.247 17.7092C177.697 17.4443 178.219 17.3249 178.74 17.3672C179.14 17.3454 179.54 17.4122 179.911 17.5627C180.282 17.7133 180.615 17.9439 180.887 18.2381C181.159 18.5322 181.362 18.8828 181.483 19.2647C181.604 19.6466 181.639 20.0504 181.585 20.4474V25.7817H179.953V20.8496C179.953 19.5299 179.339 18.8616 178.186 18.8616C177.906 18.8386 177.624 18.8771 177.361 18.9744C177.097 19.0718 176.857 19.2256 176.659 19.4251C176.461 19.6246 176.309 19.865 176.213 20.1295C176.118 20.394 176.081 20.6761 176.106 20.9562V25.7816H174.476L174.476 14.2942Z" fill="white"/>
<path d="M191.093 23.5505C190.871 24.3056 190.391 24.9588 189.737 25.3958C189.083 25.8328 188.295 26.0257 187.513 25.9408C186.969 25.9552 186.428 25.851 185.928 25.6353C185.428 25.4197 184.981 25.0978 184.617 24.692C184.254 24.2863 183.984 23.8064 183.825 23.2856C183.666 22.7648 183.622 22.2157 183.696 21.6763C183.624 21.1352 183.668 20.5849 183.827 20.0626C183.986 19.5402 184.255 19.0581 184.616 18.6488C184.977 18.2395 185.422 17.9126 185.921 17.6902C186.419 17.4678 186.96 17.3551 187.506 17.3598C189.805 17.3598 191.192 18.9304 191.192 21.5248V22.0938H185.357V22.1852C185.332 22.4884 185.37 22.7936 185.469 23.0812C185.569 23.3688 185.727 23.6325 185.934 23.8553C186.141 24.0782 186.393 24.2553 186.672 24.3753C186.952 24.4953 187.253 24.5555 187.558 24.5521C187.948 24.5989 188.343 24.5287 188.693 24.3504C189.043 24.172 189.332 23.8936 189.523 23.5505L191.093 23.5505ZM185.357 20.8879H189.53C189.551 20.6106 189.513 20.3321 189.42 20.0702C189.326 19.8083 189.179 19.5689 188.988 19.3673C188.796 19.1658 188.564 19.0065 188.308 18.8998C188.051 18.793 187.775 18.7412 187.497 18.7475C187.215 18.744 186.935 18.7969 186.674 18.9033C186.412 19.0096 186.175 19.1671 185.976 19.3666C185.776 19.5661 185.619 19.8034 185.513 20.0647C185.406 20.326 185.354 20.6059 185.357 20.8879H185.357Z" fill="white"/>
</svg>
