<svg width="237" height="71" viewBox="0 0 237 71" fill="none" xmlns="http://www.w3.org/2000/svg">
<rect x="0.8232" y="0.833454" width="235.475" height="68.7825" rx="6.31676" stroke="white" stroke-width="1.40373"/>
<path d="M83.3238 18.1048C83.3238 19.5752 82.8887 20.7455 82.0166 21.6194C81.0252 22.6581 79.7356 23.1775 78.1494 23.1775C76.6281 23.1775 75.3367 22.6511 74.2751 21.5966C73.21 20.5438 72.6801 19.2366 72.6801 17.6784C72.6801 16.1185 73.21 14.8131 74.2751 13.7585C75.3367 12.7058 76.6281 12.1776 78.1494 12.1776C78.9021 12.1776 79.625 12.325 80.3093 12.6198C80.9954 12.9146 81.5446 13.3058 81.9569 13.7954L81.0305 14.7218C80.3339 13.8901 79.3741 13.4725 78.1494 13.4725C77.0404 13.4725 76.0824 13.8621 75.2735 14.6411C74.4646 15.4219 74.061 16.4326 74.061 17.6784C74.061 18.9225 74.4646 19.9349 75.2735 20.714C76.0824 21.4948 77.0404 21.8826 78.1494 21.8826C79.325 21.8826 80.3041 21.4913 81.0901 20.7069C81.599 20.1963 81.892 19.4875 81.971 18.575H78.1494V17.3099H83.2501C83.2992 17.5854 83.3238 17.8504 83.3238 18.1048Z" fill="white"/>
<path d="M83.3238 18.1048C83.3238 19.5752 82.8887 20.7455 82.0166 21.6194C81.0252 22.6581 79.7356 23.1775 78.1494 23.1775C76.6281 23.1775 75.3367 22.6511 74.2751 21.5966C73.21 20.5438 72.6801 19.2366 72.6801 17.6784C72.6801 16.1185 73.21 14.8131 74.2751 13.7585C75.3367 12.7058 76.6281 12.1776 78.1494 12.1776C78.9021 12.1776 79.625 12.325 80.3093 12.6198C80.9954 12.9146 81.5446 13.3058 81.9569 13.7954L81.0305 14.7218C80.3339 13.8901 79.3741 13.4725 78.1494 13.4725C77.0404 13.4725 76.0824 13.8621 75.2735 14.6411C74.4646 15.4219 74.061 16.4326 74.061 17.6784C74.061 18.9225 74.4646 19.9349 75.2735 20.714C76.0824 21.4948 77.0404 21.8826 78.1494 21.8826C79.325 21.8826 80.3041 21.4913 81.0901 20.7069C81.599 20.1963 81.892 19.4875 81.971 18.575H78.1494V17.3099H83.2501C83.2992 17.5854 83.3238 17.8504 83.3238 18.1048Z" fill="white"/>
<path d="M91.4115 13.7077H86.6178V17.045H90.9412V18.3101H86.6178V21.6475H91.4115V22.9424H85.265V12.4145H91.4115V13.7077Z" fill="white"/>
<path d="M91.4115 13.7077H86.6178V17.045H90.9412V18.3101H86.6178V21.6475H91.4115V22.9424H85.265V12.4145H91.4115V13.7077Z" fill="white"/>
<path d="M97.1159 22.9419H95.7631V13.7072H92.8223V12.414H100.057V13.7072H97.1159V22.9419Z" fill="white"/>
<path d="M97.1159 22.9419H95.7631V13.7072H92.8223V12.414H100.057V13.7072H97.1159V22.9419Z" fill="white"/>
<path d="M105.291 12.414H106.644V22.9419H105.291V12.414Z" fill="white"/>
<path d="M112.644 22.9419H111.291V13.7072H108.35V12.414H115.585V13.7072H112.644V22.9419Z" fill="white"/>
<path d="M112.644 22.9419H111.291V13.7072H108.35V12.414H115.585V13.7072H112.644V22.9419Z" fill="white"/>
<path d="M122.559 20.6999C123.338 21.4895 124.291 21.8826 125.419 21.8826C126.547 21.8826 127.5 21.4895 128.279 20.6999C129.058 19.9103 129.45 18.9032 129.45 17.6784C129.45 16.4537 129.058 15.4448 128.279 14.6569C127.5 13.8673 126.547 13.4725 125.419 13.4725C124.291 13.4725 123.338 13.8673 122.559 14.6569C121.782 15.4448 121.391 16.4537 121.391 17.6784C121.391 18.9032 121.782 19.9103 122.559 20.6999ZM129.279 21.5808C128.244 22.6458 126.958 23.1775 125.419 23.1775C123.88 23.1775 122.594 22.6458 121.561 21.5808C120.526 20.5174 120.01 19.2173 120.01 17.6784C120.01 16.1396 120.526 14.8377 121.561 13.7743C122.594 12.711 123.88 12.1776 125.419 12.1776C126.949 12.1776 128.232 12.7128 129.272 13.7814C130.311 14.8499 130.831 16.1484 130.831 17.6784C130.831 19.2173 130.313 20.5174 129.279 21.5808Z" fill="white"/>
<path d="M122.559 20.6999C123.338 21.4895 124.291 21.8826 125.419 21.8826C126.547 21.8826 127.5 21.4895 128.279 20.6999C129.058 19.9103 129.45 18.9032 129.45 17.6784C129.45 16.4537 129.058 15.4448 128.279 14.6569C127.5 13.8673 126.547 13.4725 125.419 13.4725C124.291 13.4725 123.338 13.8673 122.559 14.6569C121.782 15.4448 121.391 16.4537 121.391 17.6784C121.391 18.9032 121.782 19.9103 122.559 20.6999ZM129.279 21.5808C128.244 22.6458 126.958 23.1775 125.419 23.1775C123.88 23.1775 122.594 22.6458 121.561 21.5808C120.526 20.5174 120.01 19.2173 120.01 17.6784C120.01 16.1396 120.526 14.8377 121.561 13.7743C122.594 12.711 123.88 12.1776 125.419 12.1776C126.949 12.1776 128.232 12.7128 129.272 13.7814C130.311 14.8499 130.831 16.1484 130.831 17.6784C130.831 19.2173 130.313 20.5174 129.279 21.5808Z" fill="white"/>
<path d="M132.729 22.9419V12.414H134.375L139.491 20.6029H139.551L139.491 18.5746V12.414H140.846V22.9419H139.433L134.08 14.3547H134.022L134.08 16.3848V22.9419H132.729Z" fill="white"/>
<path d="M132.729 22.9419V12.414H134.375L139.491 20.6029H139.551L139.491 18.5746V12.414H140.846V22.9419H139.433L134.08 14.3547H134.022L134.08 16.3848V22.9419H132.729Z" fill="white"/>
<path d="M187.756 52.7712H191.03V30.8363H187.756V52.7712ZM217.246 38.7375L213.493 48.2477H213.381L209.486 38.7375H205.959L211.8 52.0289L208.471 59.423H211.884L220.887 38.7375H217.246ZM198.679 50.2796C197.605 50.2796 196.11 49.7444 196.11 48.4161C196.11 46.7246 197.972 46.0754 199.581 46.0754C201.019 46.0754 201.698 46.386 202.572 46.8089C202.318 48.8407 200.568 50.2796 198.679 50.2796ZM199.074 38.2585C196.703 38.2585 194.246 39.3025 193.232 41.6169L196.138 42.8293C196.759 41.6169 197.915 41.2203 199.13 41.2203C200.823 41.2203 202.544 42.2362 202.572 44.0435V44.2681C201.979 43.9295 200.711 43.4224 199.158 43.4224C196.026 43.4224 192.836 45.1437 192.836 48.36C192.836 51.2955 195.405 53.187 198.282 53.187C200.484 53.187 201.698 52.1991 202.46 51.0411H202.572V52.7343H205.732V44.3243C205.732 40.4307 202.827 38.2585 199.074 38.2585ZM178.839 41.4081H174.182V33.8894H178.839C181.287 33.8894 182.676 35.916 182.676 37.6478C182.676 39.3481 181.287 41.4081 178.839 41.4081ZM178.755 30.8363H170.91V52.7712H174.182V44.4611H178.755C182.383 44.4611 185.951 41.8327 185.951 37.6478C185.951 33.463 182.383 30.8363 178.755 30.8363ZM135.975 50.2831C133.713 50.2831 131.82 48.3898 131.82 45.7894C131.82 43.1609 133.713 41.2379 135.975 41.2379C138.208 41.2379 139.959 43.1609 139.959 45.7894C139.959 48.3898 138.208 50.2831 135.975 50.2831ZM139.735 39.9657H139.621C138.886 39.0902 137.473 38.2988 135.692 38.2988C131.96 38.2988 128.54 41.5765 128.54 45.7894C128.54 49.9725 131.96 53.2239 135.692 53.2239C137.473 53.2239 138.886 52.4325 139.621 51.5271H139.735V52.6027C139.735 55.4575 138.208 56.9841 135.748 56.9841C133.741 56.9841 132.497 55.5417 131.988 54.3258L129.133 55.5137C129.953 57.4929 132.13 59.9231 135.748 59.9231C139.593 59.9231 142.844 57.6614 142.844 52.15V38.7498H139.735V39.9657ZM145.106 52.7712H148.385V30.8346H145.106V52.7712ZM153.218 45.535C153.133 42.6521 155.451 41.1817 157.118 41.1817C158.42 41.1817 159.522 41.8309 159.889 42.7644L153.218 45.535ZM163.395 43.0469C162.773 41.38 160.878 38.2988 157.006 38.2988C153.161 38.2988 149.968 41.3221 149.968 45.7613C149.968 49.9444 153.133 53.2239 157.373 53.2239C160.794 53.2239 162.773 51.1323 163.593 49.9163L161.049 48.2196C160.201 49.4636 159.041 50.2831 157.373 50.2831C155.706 50.2831 154.518 49.5198 153.754 48.0231L163.733 43.8944L163.395 43.0469ZM83.895 40.5886V43.754H91.4698C91.2434 45.535 90.6504 46.8352 89.7467 47.7388C88.643 48.8425 86.9182 50.0585 83.895 50.0585C79.2294 50.0585 75.5832 46.2983 75.5832 41.6344C75.5832 36.9688 79.2294 33.2103 83.895 33.2103C86.4111 33.2103 88.2482 34.2 89.6046 35.4721L91.8383 33.2384C89.9432 31.4294 87.4288 30.0432 83.895 30.0432C77.5063 30.0432 72.1353 35.2457 72.1353 41.6344C72.1353 48.0231 77.5063 53.2239 83.895 53.2239C87.3428 53.2239 89.9432 52.0921 91.9786 49.9725C94.0719 47.881 94.7211 44.9419 94.7211 42.5661C94.7211 41.8309 94.665 41.1536 94.5509 40.5886H83.895ZM103.335 50.2831C101.073 50.2831 99.1218 48.4179 99.1218 45.7613C99.1218 43.075 101.073 41.2379 103.335 41.2379C105.595 41.2379 107.546 43.075 107.546 45.7613C107.546 48.4179 105.595 50.2831 103.335 50.2831ZM103.335 38.2988C99.206 38.2988 95.8424 41.4361 95.8424 45.7613C95.8424 50.0585 99.206 53.2239 103.335 53.2239C107.462 53.2239 110.825 50.0585 110.825 45.7613C110.825 41.4361 107.462 38.2988 103.335 38.2988ZM119.676 50.2831C117.414 50.2831 115.463 48.4179 115.463 45.7613C115.463 43.075 117.414 41.2379 119.676 41.2379C121.937 41.2379 123.887 43.075 123.887 45.7613C123.887 48.4179 121.937 50.2831 119.676 50.2831ZM119.676 38.2988C115.549 38.2988 112.185 41.4361 112.185 45.7613C112.185 50.0585 115.549 53.2239 119.676 53.2239C123.803 53.2239 127.166 50.0585 127.166 45.7613C127.166 41.4361 123.803 38.2988 119.676 38.2988Z" fill="white"/>
<path d="M36.4727 34.2141L17.791 54.0416C17.7927 54.0451 17.7927 54.0504 17.7945 54.0539C18.3682 56.2068 20.3334 57.7913 22.6671 57.7913C23.6006 57.7913 24.4762 57.5386 25.2272 57.0964L25.2868 57.0613L46.3145 44.9279L36.4727 34.2141Z" fill="#EA4335"/>
<path d="M55.3718 30.8377L55.3542 30.8254L46.2757 25.5632L36.0479 34.6646L46.3125 44.9258L55.342 39.7162C56.9246 38.86 58.0002 37.1913 58.0002 35.2682C58.0002 33.3556 56.9404 31.6957 55.3718 30.8377Z" fill="#FBBC04"/>
<path d="M17.7906 16.4101C17.6783 16.8242 17.6187 17.2593 17.6187 17.7085V52.7453C17.6187 53.1945 17.6783 53.6297 17.7924 54.042L37.1145 34.7216L17.7906 16.4101Z" fill="#4285F4"/>
<path d="M36.6106 35.2263L46.2787 25.56L25.2756 13.3827C24.5123 12.9247 23.621 12.6616 22.6682 12.6616C20.3345 12.6616 18.3658 14.2495 17.792 16.4042C17.792 16.406 17.7903 16.4077 17.7903 16.4095L36.6106 35.2263Z" fill="#34A853"/>
</svg>
