<svg width="286" height="64" viewBox="0 0 286 64" fill="none" xmlns="http://www.w3.org/2000/svg">
<circle cx="19.2348" cy="24.8431" r="7.49198" fill="#DF8928"/>
<circle cx="19.2348" cy="39.8269" r="7.49198" fill="#DF8928"/>
<circle cx="34.2188" cy="24.8431" r="7.49198" fill="#DF8928"/>
<circle cx="34.2188" cy="39.8269" r="7.49198" fill="#DF8928"/>
<path d="M67.9736 24.993C67.7791 24.7985 67.4178 24.5345 66.8898 24.201C66.3896 23.8676 65.7644 23.548 65.0141 23.2423C64.2916 22.9366 63.4996 22.6727 62.6381 22.4503C61.7767 22.2002 60.9013 22.0752 60.0121 22.0752C58.4559 22.0752 57.2749 22.367 56.469 22.9505C55.691 23.5341 55.3019 24.3539 55.3019 25.4098C55.3019 26.2157 55.552 26.8549 56.0522 27.3273C56.5524 27.7997 57.3027 28.2026 58.3031 28.5361C59.3035 28.8695 60.554 29.2308 62.0546 29.6198C63.9998 30.0922 65.681 30.6758 67.0982 31.3705C68.5433 32.0375 69.6409 32.9267 70.3912 34.0382C71.1693 35.122 71.5583 36.567 71.5583 38.3733C71.5583 39.9572 71.2665 41.3189 70.683 42.4582C70.0994 43.5698 69.2935 44.4729 68.2654 45.1676C67.2372 45.8624 66.0701 46.3764 64.764 46.7099C63.4579 47.0156 62.0685 47.1684 60.5957 47.1684C59.1229 47.1684 57.6501 47.0156 56.1773 46.7099C54.7045 46.4042 53.2872 45.9735 51.9256 45.4177C50.5639 44.8342 49.3134 44.1395 48.1741 43.3336L50.7168 38.3733C50.9669 38.6234 51.4115 38.9569 52.0506 39.3737C52.6898 39.7627 53.4679 40.1657 54.3849 40.5825C55.3019 40.9715 56.3023 41.305 57.3861 41.5829C58.4698 41.8608 59.5675 41.9997 60.679 41.9997C62.2352 41.9997 63.4162 41.7357 64.2221 41.2077C65.028 40.6798 65.4309 39.9295 65.4309 38.9569C65.4309 38.0676 65.1113 37.3729 64.4722 36.8727C63.8331 36.3725 62.9438 35.9418 61.8045 35.5805C60.6651 35.1915 59.3174 34.7746 57.7612 34.33C55.8994 33.802 54.3432 33.2185 53.0927 32.5793C51.8422 31.9124 50.9113 31.0787 50.2999 30.0784C49.6886 29.078 49.3829 27.8275 49.3829 26.3269C49.3829 24.2983 49.8553 22.6032 50.8001 21.2415C51.7727 19.8521 53.0788 18.81 54.7184 18.1153C56.3579 17.3928 58.1781 17.0315 60.1788 17.0315C61.5683 17.0315 62.8743 17.1844 64.0971 17.4901C65.3475 17.7957 66.5147 18.1987 67.5984 18.6989C68.6822 19.1991 69.6548 19.7409 70.5163 20.3245L67.9736 24.993ZM75.9051 46.835V17.2816H81.6574V31.3288L94.0789 17.24H100.415L89.077 30.3701L101.123 46.835H94.6208L85.4088 34.0799L81.6574 37.9981V46.835H75.9051ZM107.123 17.24L114.418 31.1621L121.838 17.24H128.048L117.294 36.4976V46.835H111.584V36.4142L100.871 17.24H107.123ZM131.306 46.835V17.24H142.06C145.284 17.24 147.979 17.9069 150.147 19.2407C152.314 20.5468 153.94 22.3253 155.024 24.5762C156.108 26.7993 156.649 29.2725 156.649 31.9958C156.649 34.997 156.052 37.6091 154.857 39.8322C153.662 42.0553 151.967 43.7782 149.772 45.0009C147.604 46.2236 145.034 46.835 142.06 46.835H131.306ZM150.856 31.9958C150.856 30.0784 150.508 28.3971 149.813 26.9521C149.119 25.4793 148.118 24.34 146.812 23.5341C145.506 22.7004 143.922 22.2836 142.06 22.2836H137.058V41.7913H142.06C143.95 41.7913 145.548 41.3745 146.854 40.5408C148.16 39.6794 149.147 38.5122 149.813 37.0394C150.508 35.5388 150.856 33.8576 150.856 31.9958ZM161.144 46.835V17.24H174.232C175.594 17.24 176.844 17.5178 177.984 18.0736C179.151 18.6294 180.151 19.3797 180.985 20.3245C181.846 21.2693 182.499 22.3253 182.944 23.4924C183.416 24.6596 183.653 25.8545 183.653 27.0772C183.653 28.3277 183.43 29.5365 182.986 30.7036C182.569 31.8429 181.958 32.8433 181.152 33.7048C180.346 34.5662 179.401 35.2332 178.317 35.7056L185.07 46.835H178.734L172.648 36.9144H166.896V46.835H161.144ZM166.896 31.8707H174.107C174.83 31.8707 175.469 31.6623 176.025 31.2455C176.58 30.8009 177.025 30.2173 177.359 29.4948C177.692 28.7723 177.859 27.9664 177.859 27.0772C177.859 26.1324 177.664 25.3126 177.275 24.6179C176.886 23.8954 176.386 23.3257 175.775 22.9089C175.191 22.492 174.552 22.2836 173.857 22.2836H166.896V31.8707ZM201.332 47.0434C199.164 47.0434 197.191 46.6265 195.413 45.7929C193.662 44.9592 192.148 43.8338 190.869 42.4166C189.619 40.9715 188.646 39.3598 187.952 37.5813C187.257 35.775 186.909 33.9271 186.909 32.0375C186.909 30.0645 187.271 28.1887 187.993 26.4102C188.744 24.604 189.758 23.0061 191.036 21.6167C192.342 20.1995 193.871 19.0879 195.621 18.282C197.4 17.4484 199.345 17.0315 201.457 17.0315C203.597 17.0315 205.542 17.4623 207.293 18.3237C209.071 19.1852 210.585 20.3384 211.836 21.7834C213.086 23.2284 214.059 24.8402 214.754 26.6187C215.449 28.3971 215.796 30.2312 215.796 32.1208C215.796 34.066 215.435 35.9418 214.712 37.748C213.99 39.5265 212.975 41.1244 211.669 42.5416C210.391 43.931 208.863 45.0287 207.084 45.8346C205.333 46.6404 203.416 47.0434 201.332 47.0434ZM192.745 32.0375C192.745 33.3157 192.94 34.5523 193.329 35.7473C193.718 36.9422 194.273 38.012 194.996 38.9569C195.746 39.8739 196.649 40.6103 197.705 41.1661C198.789 41.694 200.012 41.958 201.374 41.958C202.763 41.958 204 41.6802 205.083 41.1244C206.167 40.5408 207.07 39.7766 207.793 38.8318C208.515 37.8592 209.057 36.7893 209.418 35.6222C209.807 34.4273 210.002 33.2324 210.002 32.0375C210.002 30.7592 209.793 29.5365 209.377 28.3693C208.988 27.1744 208.418 26.1185 207.668 25.2014C206.945 24.2566 206.042 23.5202 204.958 22.9922C203.902 22.4365 202.707 22.1586 201.374 22.1586C199.956 22.1586 198.706 22.4503 197.622 23.0339C196.566 23.5897 195.677 24.34 194.954 25.2848C194.232 26.2296 193.676 27.2856 193.287 28.4527C192.926 29.6198 192.745 30.8148 192.745 32.0375ZM225.961 27.8275V46.835H220.208V17.24H224.794L240.091 36.7476V17.2816H245.844V46.835H241.05L225.961 27.8275ZM272.55 41.7913V46.835H252V17.24H272.175V22.2836H257.752V29.4114H270.215V34.0799H257.752V41.7913H272.55Z" fill="#F3F3F3"/>
</svg>
