<svg width="207" height="46" viewBox="0 0 207 46" fill="none" xmlns="http://www.w3.org/2000/svg">
<circle cx="13.7297" cy="17.5967" r="5.40329" fill="#DF8928"/>
<circle cx="13.7297" cy="28.4033" r="5.40329" fill="#DF8928"/>
<circle cx="24.5364" cy="17.5967" r="5.40329" fill="#DF8928"/>
<circle cx="24.5364" cy="28.4033" r="5.40329" fill="#DF8928"/>
<path d="M48.8806 17.7474C48.7404 17.6071 48.4798 17.4167 48.099 17.1762C47.7383 16.9357 47.2873 16.7052 46.7462 16.4848C46.2251 16.2643 45.654 16.0739 45.0327 15.9136C44.4114 15.7332 43.7801 15.643 43.1388 15.643C42.0164 15.643 41.1647 15.8534 40.5835 16.2743C40.0223 16.6952 39.7417 17.2864 39.7417 18.048C39.7417 18.6292 39.9221 19.0902 40.2828 19.4309C40.6436 19.7716 41.1847 20.0622 41.9062 20.3027C42.6277 20.5432 43.5296 20.8037 44.6118 21.0843C46.0147 21.425 47.2272 21.8459 48.2493 22.3469C49.2915 22.8279 50.0831 23.4692 50.6243 24.2709C51.1854 25.0525 51.466 26.0947 51.466 27.3974C51.466 28.5397 51.2556 29.5218 50.8347 30.3435C50.4138 31.1451 49.8326 31.7965 49.0911 32.2975C48.3495 32.7985 47.5078 33.1693 46.5659 33.4098C45.6239 33.6303 44.6218 33.7405 43.5596 33.7405C42.4974 33.7405 41.4352 33.6303 40.373 33.4098C39.3108 33.1894 38.2887 32.8787 37.3067 32.4779C36.3246 32.057 35.4228 31.556 34.6011 30.9748L36.4349 27.3974C36.6152 27.5777 36.9359 27.8182 37.3969 28.1189C37.8578 28.3994 38.419 28.69 39.0803 28.9907C39.7417 29.2712 40.4632 29.5117 41.2448 29.7122C42.0264 29.9126 42.8181 30.0128 43.6197 30.0128C44.7421 30.0128 45.5938 29.8224 46.175 29.4416C46.7562 29.0608 47.0468 28.5197 47.0468 27.8182C47.0468 27.1769 46.8164 26.6759 46.3554 26.3151C45.8945 25.9544 45.2531 25.6437 44.4314 25.3832C43.6097 25.1026 42.6377 24.802 41.5154 24.4813C40.1726 24.1005 39.0503 23.6797 38.1484 23.2187C37.2465 22.7377 36.5752 22.1365 36.1342 21.415C35.6933 20.6935 35.4729 19.7916 35.4729 18.7094C35.4729 17.2463 35.8136 16.0238 36.495 15.0418C37.1964 14.0397 38.1384 13.2881 39.3208 12.7871C40.5033 12.266 41.816 12.0055 43.259 12.0055C44.2611 12.0055 45.203 12.1157 46.0849 12.3362C46.9867 12.5566 47.8285 12.8472 48.6101 13.208C49.3917 13.5687 50.0932 13.9595 50.7144 14.3804L48.8806 17.7474ZM54.6009 33.5V12.1858H58.7495V22.3168L67.7081 12.1558H72.2775L64.1006 21.6254L72.7886 33.5H68.0989L61.4551 24.3009L58.7495 27.1268V33.5H54.6009ZM77.1159 12.1558L82.3768 22.1966L87.7279 12.1558H92.2072L84.4511 26.0446V33.5H80.3326V25.9844L72.6066 12.1558H77.1159ZM94.5567 33.5V12.1558H102.313C104.638 12.1558 106.582 12.6368 108.145 13.5988C109.708 14.5407 110.881 15.8234 111.662 17.4467C112.444 19.0501 112.835 20.8338 112.835 22.7978C112.835 24.9623 112.404 26.8462 111.542 28.4495C110.68 30.0529 109.458 31.2954 107.874 32.1773C106.311 33.0591 104.457 33.5 102.313 33.5H94.5567ZM108.656 22.7978C108.656 21.415 108.405 20.2025 107.904 19.1603C107.403 18.0981 106.682 17.2764 105.74 16.6952C104.798 16.0939 103.656 15.7933 102.313 15.7933H98.7053V29.8625H102.313C103.676 29.8625 104.828 29.5618 105.77 28.9606C106.712 28.3393 107.423 27.4976 107.904 26.4354C108.405 25.3531 108.656 24.1406 108.656 22.7978ZM116.076 33.5V12.1558H125.515C126.498 12.1558 127.399 12.3562 128.221 12.757C129.063 13.1579 129.784 13.699 130.386 14.3804C131.007 15.0618 131.478 15.8234 131.798 16.6651C132.139 17.5069 132.31 18.3687 132.31 19.2505C132.31 20.1524 132.149 21.0242 131.829 21.8659C131.528 22.6876 131.087 23.4091 130.506 24.0304C129.925 24.6517 129.243 25.1327 128.462 25.4734L133.332 33.5H128.762L124.373 26.3452H120.225V33.5H116.076ZM120.225 22.7076H125.425C125.946 22.7076 126.407 22.5573 126.808 22.2567C127.209 21.936 127.53 21.5152 127.77 20.9941C128.011 20.473 128.131 19.8918 128.131 19.2505C128.131 18.5691 127.991 17.9778 127.71 17.4768C127.429 16.9557 127.069 16.5449 126.628 16.2443C126.207 15.9436 125.746 15.7933 125.245 15.7933H120.225V22.7076ZM145.06 33.6503C143.497 33.6503 142.074 33.3497 140.791 32.7484C139.528 32.1472 138.436 31.3355 137.514 30.3134C136.612 29.2712 135.911 28.1088 135.41 26.8262C134.909 25.5235 134.658 24.1907 134.658 22.8279C134.658 21.4049 134.919 20.0521 135.44 18.7695C135.981 17.4668 136.713 16.3144 137.635 15.3123C138.577 14.2902 139.679 13.4885 140.941 12.9073C142.224 12.3061 143.627 12.0055 145.15 12.0055C146.693 12.0055 148.096 12.3161 149.359 12.9374C150.642 13.5587 151.734 14.3904 152.636 15.4326C153.538 16.4747 154.239 17.6371 154.74 18.9198C155.241 20.2025 155.492 21.5252 155.492 22.888C155.492 24.2909 155.231 25.6437 154.71 26.9464C154.189 28.2291 153.457 29.3815 152.515 30.4036C151.593 31.4057 150.491 32.1973 149.209 32.7785C147.946 33.3597 146.563 33.6503 145.06 33.6503ZM138.867 22.8279C138.867 23.7498 139.007 24.6417 139.288 25.5034C139.569 26.3652 139.969 27.1368 140.49 27.8182C141.032 28.4796 141.683 29.0107 142.445 29.4115C143.226 29.7923 144.108 29.9827 145.09 29.9827C146.092 29.9827 146.984 29.7823 147.766 29.3815C148.547 28.9606 149.199 28.4095 149.72 27.728C150.241 27.0266 150.631 26.255 150.892 25.4132C151.173 24.5515 151.313 23.6897 151.313 22.8279C151.313 21.906 151.163 21.0242 150.862 20.1824C150.581 19.3206 150.171 18.5591 149.629 17.8977C149.108 17.2163 148.457 16.6852 147.675 16.3044C146.914 15.9036 146.052 15.7031 145.09 15.7031C144.068 15.7031 143.166 15.9136 142.384 16.3344C141.623 16.7353 140.981 17.2764 140.46 17.9578C139.939 18.6392 139.539 19.4008 139.258 20.2425C138.997 21.0843 138.867 21.9461 138.867 22.8279ZM162.823 19.7916V33.5H158.674V12.1558H161.981L173.014 26.2249V12.1858H177.162V33.5H173.705L162.823 19.7916ZM196.423 29.8625V33.5H181.602V12.1558H196.152V15.7933H185.751V20.934H194.739V24.3009H185.751V29.8625H196.423Z" fill="#393939"/>
</svg>
