<svg width="186" height="44" viewBox="0 0 186 44" fill="none" xmlns="http://www.w3.org/2000/svg">
<path d="M13.8104 25.4261H19.3437C19.4013 26.5349 19.8048 27.3519 20.5541 27.877C21.361 28.4022 22.4562 28.694 23.7819 28.694C24.7617 28.694 25.5687 28.519 26.318 28.1105C26.952 27.702 27.2978 27.2351 27.2978 26.5349C27.2978 25.5428 26.1451 24.7842 23.8971 24.3174C22.9173 24.1423 22.168 23.9673 21.7069 23.8505C18.8249 23.1503 16.9229 22.275 15.943 21.2829C14.8479 20.2909 14.3291 19.0071 14.3291 17.3148C14.3291 15.214 15.1361 13.5217 16.6923 12.1212C18.3062 10.8373 20.4388 10.2538 23.0326 10.2538C25.8569 10.2538 28.1048 10.8957 29.7763 12.1212C31.3325 13.4633 32.1971 15.2723 32.3124 17.4315H28.8541C27.8166 17.4315 27.0673 16.9646 26.4909 16.0309C26.2603 15.7975 26.0298 15.6225 25.8569 15.389C25.2228 14.9222 24.3006 14.6304 23.2055 14.6304C22.1103 14.6304 21.3034 14.8055 20.7847 15.0973C20.3235 15.4474 20.0353 15.9142 20.0353 16.5561C20.0353 17.4315 21.4187 18.1901 24.243 18.7736C24.5888 18.8904 24.877 18.9487 25.1076 19.0071C25.3381 19.0654 25.5687 19.0654 25.7992 19.0654C28.5659 19.7657 30.468 20.5827 31.5631 21.5163C32.6006 22.5084 33.1193 23.7922 33.1193 25.4845C33.1193 27.877 32.2548 29.7444 30.5256 31.0866C28.9117 32.312 26.4909 32.8956 23.2055 32.8956C20.1506 32.8956 17.8451 32.2537 16.2888 31.0282C14.7326 29.7444 13.9256 27.9354 13.9256 25.5428V25.4261H13.8104ZM47.529 16.9646C46.7221 15.7975 45.627 15.214 44.186 15.214C42.6874 15.214 41.5346 15.7392 40.7277 16.8479C39.9207 17.9567 39.5173 19.4739 39.5173 21.3413V32.6622H33.9839V4.41827H36.7506C37.4999 4.41827 38.1339 4.71004 38.7103 5.23524C39.2291 5.76044 39.5173 6.4607 39.5173 7.21932V13.6967C40.4971 12.0628 41.8804 11.0124 43.6672 10.6039C45.454 10.1954 47.1256 10.2538 48.7971 10.954C50.2957 11.596 51.5638 12.6463 52.6012 14.0469C53.6387 15.4474 54.1575 17.4315 54.1575 19.9407V32.6622H48.7395V21.3413C48.7395 20.5243 48.6818 19.7657 48.5089 19.0654C48.336 18.4235 47.9902 17.7232 47.529 16.9646ZM55.3103 10.8373H58.2498C58.9992 10.8373 59.6332 11.1291 60.2096 11.6543C60.7283 12.1795 61.0165 12.8798 61.0165 13.6384V32.6622H55.3679V10.8373H55.3103ZM67.7602 37.7974C67.7602 38.556 67.472 39.1979 66.9533 39.7815C66.4346 40.3067 65.7429 40.5985 64.9936 40.5985H62.2269V20.1742C62.2269 16.3227 63.3221 13.7551 65.57 12.3546C67.7602 10.954 70.1811 10.2538 72.7748 10.2538C74.1005 10.2538 75.4838 10.4872 76.8672 11.0124C78.2505 11.5376 79.3456 12.2962 80.1526 13.2883C81.7665 15.4474 82.5734 18.1317 82.5734 21.5163C82.5734 24.9593 81.7665 27.7603 80.1526 29.8611C78.5387 31.9619 76.4637 32.9539 73.9276 32.9539C72.6019 32.9539 71.3915 32.7205 70.354 32.1953C69.2589 31.6701 68.3943 30.7948 67.7602 29.6277V37.7974ZM77.0401 21.6914C77.0401 19.5323 76.6366 17.8983 75.8297 16.7896C75.0227 15.6225 73.87 15.0389 72.3713 15.0389C70.9304 15.0389 69.7776 15.6225 68.9707 16.7896C68.2214 17.84 67.8179 19.4739 67.8179 21.6914C67.8179 23.7922 68.2214 25.3094 69.0283 26.3598C69.8352 27.5269 70.988 28.1105 72.4866 28.1105C73.87 28.1105 75.0227 27.5269 75.8297 26.3598C76.6366 25.2511 77.0401 23.6755 77.0401 21.6914ZM89.0866 37.7974C89.0866 38.556 88.7984 39.1979 88.2796 39.7815C87.7609 40.3067 87.0692 40.5985 86.3199 40.5985H83.5533V20.1742C83.5533 16.3227 84.6484 13.7551 86.8963 12.3546C89.0866 10.954 91.5074 10.2538 94.1012 10.2538C95.4268 10.2538 96.8102 10.4872 98.1935 11.0124C99.5768 11.5376 100.672 12.2962 101.479 13.2883C103.093 15.4474 103.9 18.1317 103.9 21.5163C103.9 24.9593 103.093 27.7603 101.479 29.8611C99.865 31.9619 97.79 32.9539 95.2539 32.9539C93.9282 32.9539 92.7178 32.7205 91.6803 32.1953C90.5852 31.6701 89.7206 30.7948 89.0866 29.6277V37.7974ZM98.3088 21.6914C98.3088 19.5323 97.9053 17.8983 97.0984 16.7896C96.2914 15.6225 95.1387 15.0389 93.6401 15.0389C92.1991 15.0389 91.0463 15.6225 90.2394 16.7896C89.4901 17.84 89.0866 19.4739 89.0866 21.6914C89.0866 23.7922 89.4901 25.3094 90.297 26.3598C91.1039 27.5269 92.2567 28.1105 93.7553 28.1105C95.1387 28.1105 96.2914 27.5269 97.0984 26.3598C97.9053 25.2511 98.3088 23.6755 98.3088 21.6914ZM118.598 31.6118C117.445 32.1953 116.234 32.6038 114.966 32.7205C113.698 32.8372 112.603 32.9539 111.623 32.9539C109.664 32.9539 107.992 32.4288 106.493 31.3784C105.053 30.328 104.303 28.519 104.303 26.068C104.303 23.7922 104.937 22.0999 106.263 21.1662C107.589 20.1742 109.26 19.5323 111.335 19.1821C111.623 19.1821 111.912 19.1238 112.315 19.0654C112.718 19.0071 113.122 18.8904 113.641 18.832C116.004 18.4819 117.214 17.7816 117.214 16.6729C117.214 15.8559 116.811 15.3307 115.946 15.0973C115.082 14.8638 114.332 14.7471 113.641 14.7471C112.891 14.7471 112.2 14.8638 111.623 15.0973C111.047 15.3307 110.586 15.7392 110.298 16.3227H104.88C105.11 14.6304 105.859 13.2299 107.128 12.1212C108.568 10.8373 110.643 10.2538 113.353 10.2538C116.35 10.2538 118.655 10.779 120.154 11.8294C121.71 12.9381 122.517 14.4554 122.517 16.4394V23.9089C122.517 26.1264 122.114 27.8187 121.364 29.0442C120.615 30.1529 119.693 31.0282 118.598 31.6118ZM117.33 21.5163C116.58 21.9248 115.543 22.275 114.159 22.5667L112.315 22.9752C111.335 23.267 110.643 23.6171 110.182 24.0256C109.779 24.6092 109.606 25.2511 109.606 25.8346C109.606 26.6516 109.837 27.2935 110.355 27.8187C110.816 28.2855 111.566 28.4606 112.488 28.4606C113.987 28.4606 115.197 28.0521 116.062 27.1184C116.926 26.2431 117.387 25.0176 117.387 23.5004V21.5163H117.33ZM129.434 6.63576V13.2299C130.01 12.1795 130.875 11.3625 132.027 10.6623C133.007 10.1371 134.16 9.8453 135.601 9.8453C138.137 9.8453 140.212 10.8957 141.826 13.0548C143.44 15.214 144.247 17.9567 144.247 21.3413C144.247 24.7259 143.44 27.4686 141.826 29.6277C141.019 30.6781 139.924 31.4367 138.541 31.9036C137.157 32.3704 135.774 32.6038 134.448 32.6038C131.855 32.6038 129.434 31.9036 127.243 30.5614C125.053 29.2192 123.9 26.5932 123.9 22.6834V3.83472H126.667C127.416 3.83472 128.05 4.12649 128.627 4.65169C129.146 5.17689 129.434 5.87715 129.434 6.63576ZM138.656 21.0495C138.656 19.0654 138.252 17.5482 137.446 16.4394C136.639 15.2723 135.543 14.6888 134.102 14.6888C132.604 14.6888 131.451 15.214 130.644 16.3227C129.837 17.4898 129.434 19.0071 129.434 20.9911C129.434 23.267 129.837 24.9593 130.587 26.0097C131.393 27.1768 132.546 27.7603 133.987 27.7603C135.486 27.7603 136.639 27.1768 137.446 26.0097C138.252 24.9009 138.656 23.267 138.656 21.0495ZM145.227 4.41827H148.166C148.916 4.41827 149.55 4.65169 150.126 5.17689C150.645 5.70208 150.933 6.34399 150.933 7.10261V32.6622H145.284V4.41827H145.227ZM167.648 25.893H171.683C171.107 28.1688 169.954 29.9195 168.282 31.1449C166.611 32.4288 164.478 33.0123 161.942 33.0123C158.887 33.0123 156.466 32.0203 154.737 29.9778C153.008 27.9938 152.143 25.1927 152.143 21.5163C152.143 18.015 153.008 15.2723 154.679 13.2883C156.409 11.2458 158.829 10.2538 161.884 10.2538C165.112 10.2538 167.648 11.2458 169.435 13.2299C171.164 15.2723 172.029 18.0734 172.029 21.6914V22.275V22.6251C172.029 22.9169 172.029 23.0919 171.971 23.2086H157.965C158.023 24.9009 158.426 26.1847 159.175 27.0017C159.867 27.877 160.904 28.3439 162.345 28.3439C163.268 28.3439 164.075 28.1688 164.709 27.7603C164.882 27.702 164.997 27.5853 165.17 27.4686C165.285 27.3518 165.458 27.1768 165.631 27.0017C165.689 26.8267 165.861 26.5932 166.265 26.3598C166.495 26.0097 167.014 25.893 167.648 25.893ZM157.907 19.4739H166.15C166.034 18.015 165.688 16.9063 164.997 16.206C164.305 15.4474 163.268 15.0389 162 15.0389C160.789 15.0389 159.809 15.4474 159.06 16.206C158.368 16.9646 157.965 18.0734 157.907 19.4739Z" fill="#393939"/>
<path d="M55.3102 4.41827H58.2498C58.9991 4.41827 59.6332 4.71005 60.2095 5.23525C60.7283 5.76044 61.0165 6.4607 61.0165 7.21932V8.96998H55.3679V4.41827H55.3102Z" fill="#238189"/>
</svg>
